HIERARCHY
ROOT Hips
{
	OFFSET -3.958830 18.904000 13.208200
	CHANNELS 6 Xposition Yposition Zposition Zrotation Yrotation Xrotation 
	JOINT LHipJoint
	{
		OFFSET 0.000000 0.000000 0.000000
		CHANNELS 3 Zrotation Yrotation Xrotation
		JOINT LeftUpLeg
		{
			OFFSET 1.800000 -1.400000 0.085000
			CHANNELS 3 Zrotation Yrotation Xrotation
			JOINT LeftLeg
			{
				OFFSET 2.215000 -6.000000 0.000000
				CHANNELS 3 Zrotation Yrotation Xrotation
				JOINT LeftFoot
				{
					OFFSET 2.500000 -6.900000 0.000000
					CHANNELS 3 Zrotation Yrotation Xrotation
					JOINT LeftToeBase
					{
						OFFSET 0.200000 -0.500000 1.950000
						CHANNELS 3 Zrotation Yrotation Xrotation
						End Site
						{
							OFFSET 0.000000 0.000000 0.000000
						}
					}
				}
			}
		}
	}
	JOINT RHipJoint
	{
		OFFSET 0.000000 0.000000 0.000000
		CHANNELS 3 Zrotation Yrotation Xrotation
		JOINT RightUpLeg
		{
			OFFSET -1.800000 -1.400000 0.085000
			CHANNELS 3 Zrotation Yrotation Xrotation
			JOINT RightLeg
			{
				OFFSET -2.215000 -6.000000 0.000000
				CHANNELS 3 Zrotation Yrotation Xrotation
				JOINT RightFoot
				{
					OFFSET -2.500000 -6.900000 0.000000
					CHANNELS 3 Zrotation Yrotation Xrotation
					JOINT RightToeBase
					{
						OFFSET -0.200000 -0.500000 1.950000
						CHANNELS 3 Zrotation Yrotation Xrotation
						End Site
						{
							OFFSET 0.000000 0.000000 0.000000
						}
					}
				}
			}
		}
	}
	JOINT LowerBack
	{
		OFFSET 0.000000 0.000000 0.000000
		CHANNELS 3 Zrotation Yrotation Xrotation
		JOINT Spine
		{
			OFFSET -0.087000 1.940000 -0.288900
			CHANNELS 3 Zrotation Yrotation Xrotation
			JOINT Spine1
			{
				OFFSET 0.000000 1.950000 0.060000
				CHANNELS 3 Zrotation Yrotation Xrotation
				JOINT Neck
				{
					OFFSET 0.000000 0.000000 0.000000
					CHANNELS 3 Zrotation Yrotation Xrotation
					JOINT Neck1
					{
						OFFSET 0.000000 1.600000 0.340000
						CHANNELS 3 Zrotation Yrotation Xrotation
						JOINT Head
						{
							OFFSET 0.000000 1.667000 -0.240000
							CHANNELS 3 Zrotation Yrotation Xrotation
							End Site
							{
								OFFSET 0.000000 0.000000 0.000000
							}
						}
					}
				}
				JOINT LeftShoulder
				{
					OFFSET 0.000000 0.000000 0.000000
					CHANNELS 3 Zrotation Yrotation Xrotation
					JOINT LeftArm
					{
						OFFSET 2.700000 1.550000 -0.730000
						CHANNELS 3 Zrotation Yrotation Xrotation
						JOINT LeftForeArm
						{
							OFFSET 5.450000 0.000000 0.000000
							CHANNELS 3 Zrotation Yrotation Xrotation
							JOINT LeftHand
							{
								OFFSET 3.450000 0.000000 0.000000
								CHANNELS 3 Zrotation Yrotation Xrotation
								JOINT LeftHandIndex1
								{
									OFFSET 0.750000 0.000000 0.000000
									CHANNELS 3 Zrotation Yrotation Xrotation
									End Site
									{
										OFFSET 0.000000 0.000000 0.000000
									}
								}
							}
						}
					}
				}
				JOINT RightShoulder
				{
					OFFSET 0.000000 0.000000 0.000000
					CHANNELS 3 Zrotation Yrotation Xrotation
					JOINT RightArm
					{
						OFFSET -2.700000 1.550000 -0.730000
						CHANNELS 3 Zrotation Yrotation Xrotation
						JOINT RightForeArm
						{
							OFFSET -5.450000 0.000000 0.000000
							CHANNELS 3 Zrotation Yrotation Xrotation
							JOINT RightHand
							{
								OFFSET -3.450000 0.000000 0.000000
								CHANNELS 3 Zrotation Yrotation Xrotation
								JOINT RightHandIndex1
								{
									OFFSET -0.750000 0.000000 0.000000
									CHANNELS 3 Zrotation Yrotation Xrotation
									End Site
									{
										OFFSET 0.000000 0.000000 0.000000
									}
								}
							}
						}
					}
				}
			}
		}
	}
}
MOTION
Frames: 7
Frame Time: 0.016667
0.827640 15.619130 -1.204340 1.170019 -0.875890 2.420161 -15.102098 12.999366 3.468356 2.677879 -5.281414 -20.189794 -12.979091 9.990467 27.844777 -0.716074 6.946871 2.435521 0.511230 -0.227240 0.360260 18.397126 -9.993377 3.202687 -7.954929 4.404728 -35.633039 5.237408 -6.338095 27.284785 -0.041714 -3.823501 3.268539 0.221170 0.673180 0.223830 -3.847660 -2.660856 -7.709636 12.340936 -4.996091 14.653181 -3.887851 -2.914601 1.281447 0.244630 -6.566386 -6.732693 -12.407821 6.210814 24.111472 -4.347850 2.451610 -5.804240 -29.758099 -9.503292 0.096445 -30.644132 -10.934289 1.319994 -66.938917 -40.195051 23.165124 -4.075509 3.390636 0.650150 0.446150 -0.476240 0.384760 29.003011 11.654376 5.319366 31.799984 1.073167 -6.041133 17.790027 26.847318 2.126004 1.468454 -1.539548 -0.611320 0.527210 0.150530 -0.491950 
0.832390 15.596440 -1.206280 1.149833 -0.666419 1.656098 -15.105153 13.041592 3.480432 2.769244 -5.361340 -19.846885 -12.873176 10.206999 28.811289 -0.679022 7.099964 2.372696 0.502030 -0.243510 0.359850 18.388415 -9.966373 3.250688 -8.238202 4.528113 -36.355563 4.510214 -6.744048 30.439231 -0.118882 -4.209032 3.126728 0.200060 0.650560 0.214590 -3.827000 -2.778183 -7.809229 12.423632 -5.301869 15.986437 -4.011053 -3.019216 0.592500 0.375302 -6.712428 -6.885381 -12.911499 6.365535 25.074332 -3.961880 2.320310 -6.432620 -30.587124 -9.969833 0.045889 -30.480224 -10.821972 0.897212 -63.850596 -38.349150 20.565153 -4.030962 3.349906 0.688190 0.411990 -0.452860 0.375230 29.579784 12.163671 5.567893 31.795370 0.977971 -6.203481 16.961488 26.232705 1.936746 1.479611 -1.493976 -0.612970 0.533700 0.158100 -0.497590 
0.842320 15.553370 -1.223960 1.283167 -0.312277 0.334393 -15.136743 13.086998 3.530375 2.709588 -5.734639 -19.613575 -12.596450 10.648776 31.093670 -0.594064 7.434357 2.235258 0.486120 -0.268570 0.373370 18.356625 -9.847859 3.364968 -9.196431 4.688020 -37.770232 3.827011 -7.668551 35.800256 -0.277472 -4.993318 2.841130 0.163280 0.595960 0.195100 -3.732018 -3.056334 -8.025666 12.099602 -5.779188 18.520288 -4.065469 -3.190362 -0.669739 0.710264 -6.794016 -7.241482 -13.570982 6.451783 27.062311 -3.725660 2.218280 -7.534770 -32.146513 -11.013954 0.011731 -30.321972 -10.760209 0.191474 -57.470719 -34.576750 15.778264 -3.944675 3.264645 0.753260 0.350010 -0.405020 0.350620 30.545232 13.220620 6.089396 31.792828 0.694773 -6.586027 15.714531 25.664671 1.713387 1.501736 -1.419637 -0.613920 0.538420 0.163660 -0.513190 
0.847320 15.504820 -1.256370 1.442882 -0.023757 -1.210947 -15.194171 13.061837 3.636542 2.845389 -6.470878 -20.024422 -12.462596 11.507212 34.806759 -0.424686 8.038978 1.997060 0.488770 -0.280370 0.401590 18.314528 -9.641193 3.517122 -10.518472 4.933914 -39.357279 3.334061 -8.927418 41.998202 -0.507449 -6.040397 2.471229 0.117840 0.518780 0.197680 -3.586660 -3.367516 -8.314382 11.508052 -6.050988 21.596932 -4.032784 -3.160657 -2.199957 1.238817 -6.601457 -7.776859 -13.845638 6.382698 29.611877 -3.895380 2.276880 -8.346730 -34.346212 -12.234432 0.240459 -30.199564 -9.921472 -0.897479 -50.314113 -31.737977 11.758592 -3.832735 3.217057 0.814140 0.283560 -0.342930 0.331910 31.817018 14.464076 6.738929 31.948096 -0.077764 -7.296782 14.510884 26.062299 1.593294 1.515222 -1.387930 -0.585590 0.505740 0.151740 -0.528670 
0.849000 15.462510 -1.283730 1.609436 0.404734 -2.923403 -15.249924 13.037870 3.734270 3.121751 -7.124255 -20.224917 -12.406099 12.444550 38.395558 -0.240387 8.670846 1.753386 0.508290 -0.271150 0.447010 18.270434 -9.462101 3.631663 -12.081909 5.128499 -40.172284 2.991875 -10.296016 47.979989 -0.773900 -7.124339 2.100184 0.081930 0.431970 0.205820 -3.446029 -3.633845 -8.580069 10.953929 -6.131255 24.631573 -4.135504 -3.037334 -3.866009 1.813836 -6.147547 -8.272475 -13.774068 6.246284 32.869371 -4.053720 2.278730 -9.420770 -36.902328 -13.277559 0.542436 -30.276978 -8.737963 -1.889387 -42.194448 -28.182321 7.799018 -3.710157 3.155106 0.876920 0.212350 -0.266740 0.314510 33.323767 15.509550 7.175499 32.106007 -0.406463 -7.702465 13.383503 25.527637 1.418797 1.539574 -1.347032 -0.547940 0.474000 0.129320 -0.543180 
0.849520 15.430990 -1.290990 1.382261 0.818225 -4.537647 -15.268589 12.980574 3.773259 3.908593 -7.442260 -20.151822 -12.528919 13.506867 41.472852 -0.089724 9.303059 1.507580 0.510060 -0.276580 0.495430 18.263594 -9.332105 3.738035 -13.363680 5.540023 -40.438504 2.764603 -11.840152 54.004414 -1.060729 -8.260400 1.732992 0.053200 0.351560 0.208570 -3.415071 -3.708949 -8.795706 11.388274 -6.111450 26.589859 -5.056269 -2.765271 -5.116767 2.622801 -5.016418 -8.569329 -12.370828 5.915282 36.720778 -4.998710 2.810630 -10.139850 -39.663875 -14.141992 0.780214 -30.037988 -7.836825 -2.298573 -34.275689 -23.264891 4.332371 -3.631906 3.046501 0.934190 0.166060 -0.204310 0.278610 34.372618 15.935650 7.325870 32.997803 -0.602596 -7.964109 13.221857 24.843550 1.357355 1.555797 -1.290944 -0.530790 0.449870 0.122770 -0.575610 
0.853490 15.400330 -1.274900 1.244215 0.967492 -5.650682 -15.253799 12.871282 3.778449 4.565993 -7.486252 -20.087484 -12.861678 14.585930 43.760183 0.061193 9.828139 1.323295 0.526840 -0.257080 0.531790 18.297691 -9.251072 3.816608 -14.746493 5.932270 -40.466959 2.572234 -13.313762 59.285883 -1.330625 -9.280602 1.424810 0.042530 0.302530 0.206780 -3.489019 -3.610677 -8.933250 12.282247 -6.149410 26.960250 -6.293985 -2.690183 -5.758965 3.192953 -4.232847 -8.565521 -11.278783 5.759912 39.536795 -5.344890 3.043820 -10.329650 -41.573039 -14.009532 0.981872 -30.022893 -6.252324 -2.634435 -28.073426 -19.310033 2.142081 -3.579848 2.958762 0.959150 0.134840 -0.161570 0.269330 34.936048 15.501147 7.080889 34.308504 -0.881677 -8.472286 13.850567 25.558144 1.472164 1.569928 -1.275326 -0.509750 0.437760 0.100320 -0.584690 
